<mxfile host="app.diagrams.net" modified="2023-04-28T06:10:58.065Z" agent="Mozilla/5.0 (Windows NT 10.0; Win64; x64) AppleWebKit/537.36 (KHTML, like Gecko) Chrome/112.0.0.0 Safari/537.36" etag="K1arIiLaLJH6JsFmtaq6" version="21.2.2" type="github">
  <diagram id="C5RBs43oDa-KdzZeNtuy" name="Page-1">
    <mxGraphModel dx="1787" dy="837" grid="1" gridSize="10" guides="1" tooltips="1" connect="1" arrows="1" fold="1" page="1" pageScale="1" pageWidth="827" pageHeight="1169" math="0" shadow="0">
      <root>
        <mxCell id="WIyWlLk6GJQsqaUBKTNV-0" />
        <mxCell id="WIyWlLk6GJQsqaUBKTNV-1" parent="WIyWlLk6GJQsqaUBKTNV-0" />
        <mxCell id="oiWDQCpB6odHgl-2GRSj-9" value="Feign" style="rounded=0;orthogonalLoop=1;jettySize=auto;html=1;exitX=0.5;exitY=1;exitDx=0;exitDy=0;strokeColor=#0B4D6A;fontSize=17;" parent="WIyWlLk6GJQsqaUBKTNV-1" source="oiWDQCpB6odHgl-2GRSj-0" target="oiWDQCpB6odHgl-2GRSj-1" edge="1">
          <mxGeometry relative="1" as="geometry" />
        </mxCell>
        <mxCell id="oiWDQCpB6odHgl-2GRSj-10" value="Feign" style="rounded=0;orthogonalLoop=1;jettySize=auto;html=1;exitX=0.5;exitY=1;exitDx=0;exitDy=0;entryX=0.5;entryY=0;entryDx=0;entryDy=0;strokeColor=#0B4D6A;fontSize=17;" parent="WIyWlLk6GJQsqaUBKTNV-1" source="oiWDQCpB6odHgl-2GRSj-0" target="oiWDQCpB6odHgl-2GRSj-2" edge="1">
          <mxGeometry relative="1" as="geometry" />
        </mxCell>
        <mxCell id="oiWDQCpB6odHgl-2GRSj-11" value="Feign" style="rounded=0;orthogonalLoop=1;jettySize=auto;html=1;exitX=0.5;exitY=1;exitDx=0;exitDy=0;entryX=0.5;entryY=0;entryDx=0;entryDy=0;strokeColor=#0B4D6A;fontSize=17;" parent="WIyWlLk6GJQsqaUBKTNV-1" source="oiWDQCpB6odHgl-2GRSj-0" target="oiWDQCpB6odHgl-2GRSj-3" edge="1">
          <mxGeometry relative="1" as="geometry" />
        </mxCell>
        <mxCell id="oiWDQCpB6odHgl-2GRSj-0" value="事务管理者 TM" style="swimlane;whiteSpace=wrap;html=1;startSize=40;rounded=1;labelBackgroundColor=none;fillColor=#09555B;strokeColor=#BAC8D3;fontColor=#EEEEEE;fontSize=16;" parent="WIyWlLk6GJQsqaUBKTNV-1" vertex="1">
          <mxGeometry x="50" y="25" width="160" height="120" as="geometry">
            <mxRectangle x="440" y="40" width="70" height="40" as="alternateBounds" />
          </mxGeometry>
        </mxCell>
        <mxCell id="oiWDQCpB6odHgl-2GRSj-16" value="@Transction" style="edgeStyle=orthogonalEdgeStyle;rounded=0;orthogonalLoop=1;jettySize=auto;html=1;exitX=0.5;exitY=1;exitDx=0;exitDy=0;entryX=0.5;entryY=0;entryDx=0;entryDy=0;entryPerimeter=0;strokeColor=#0B4D6A;fontSize=13;" parent="WIyWlLk6GJQsqaUBKTNV-1" source="oiWDQCpB6odHgl-2GRSj-1" target="oiWDQCpB6odHgl-2GRSj-13" edge="1">
          <mxGeometry relative="1" as="geometry" />
        </mxCell>
        <mxCell id="tsjQ4f3Fj1VHNN_PMI0R-36" style="rounded=0;orthogonalLoop=1;jettySize=auto;html=1;exitX=0.5;exitY=0;exitDx=0;exitDy=0;entryX=0.5;entryY=1;entryDx=0;entryDy=0;" edge="1" parent="WIyWlLk6GJQsqaUBKTNV-1" source="oiWDQCpB6odHgl-2GRSj-1" target="tsjQ4f3Fj1VHNN_PMI0R-30">
          <mxGeometry relative="1" as="geometry" />
        </mxCell>
        <mxCell id="oiWDQCpB6odHgl-2GRSj-1" value="资源管理者 RM2" style="swimlane;whiteSpace=wrap;html=1;startSize=40;rounded=1;labelBackgroundColor=none;fillColor=#09555B;strokeColor=#BAC8D3;fontColor=#EEEEEE;fontSize=16;" parent="WIyWlLk6GJQsqaUBKTNV-1" vertex="1">
          <mxGeometry x="250" y="240" width="160" height="120" as="geometry">
            <mxRectangle x="440" y="40" width="70" height="40" as="alternateBounds" />
          </mxGeometry>
        </mxCell>
        <mxCell id="tsjQ4f3Fj1VHNN_PMI0R-38" value="&lt;div style=&quot;text-align: left;&quot;&gt;&lt;span style=&quot;font-size: 18px; background-color: initial;&quot;&gt;try api&lt;/span&gt;&lt;/div&gt;&lt;font style=&quot;font-size: 18px;&quot;&gt;&lt;div style=&quot;text-align: left;&quot;&gt;&lt;span style=&quot;background-color: initial;&quot;&gt;[commit api]&lt;/span&gt;&lt;/div&gt;&lt;div style=&quot;text-align: left;&quot;&gt;&lt;span style=&quot;background-color: initial;&quot;&gt;cancel api&lt;/span&gt;&lt;/div&gt;&lt;/font&gt;" style="text;html=1;align=center;verticalAlign=middle;resizable=0;points=[];autosize=1;strokeColor=none;fillColor=none;" vertex="1" parent="oiWDQCpB6odHgl-2GRSj-1">
          <mxGeometry x="20" y="40" width="120" height="80" as="geometry" />
        </mxCell>
        <mxCell id="oiWDQCpB6odHgl-2GRSj-15" value="@Transction" style="edgeStyle=orthogonalEdgeStyle;rounded=0;orthogonalLoop=1;jettySize=auto;html=1;exitX=0.5;exitY=1;exitDx=0;exitDy=0;entryX=0.5;entryY=0;entryDx=0;entryDy=0;entryPerimeter=0;strokeColor=#0B4D6A;fontSize=13;" parent="WIyWlLk6GJQsqaUBKTNV-1" source="oiWDQCpB6odHgl-2GRSj-2" target="oiWDQCpB6odHgl-2GRSj-12" edge="1">
          <mxGeometry relative="1" as="geometry" />
        </mxCell>
        <mxCell id="tsjQ4f3Fj1VHNN_PMI0R-34" style="rounded=0;orthogonalLoop=1;jettySize=auto;html=1;exitX=1;exitY=0;exitDx=0;exitDy=0;entryX=0.5;entryY=1;entryDx=0;entryDy=0;" edge="1" parent="WIyWlLk6GJQsqaUBKTNV-1" source="oiWDQCpB6odHgl-2GRSj-2" target="tsjQ4f3Fj1VHNN_PMI0R-30">
          <mxGeometry relative="1" as="geometry" />
        </mxCell>
        <mxCell id="oiWDQCpB6odHgl-2GRSj-2" value="资源管理者 RM1" style="swimlane;whiteSpace=wrap;html=1;startSize=40;rounded=1;labelBackgroundColor=none;fillColor=#09555B;strokeColor=#BAC8D3;fontColor=#EEEEEE;fontSize=16;" parent="WIyWlLk6GJQsqaUBKTNV-1" vertex="1">
          <mxGeometry x="50" y="240" width="160" height="130" as="geometry">
            <mxRectangle x="440" y="40" width="70" height="40" as="alternateBounds" />
          </mxGeometry>
        </mxCell>
        <mxCell id="tsjQ4f3Fj1VHNN_PMI0R-27" value="&lt;div style=&quot;text-align: left;&quot;&gt;&lt;span style=&quot;font-size: 18px; background-color: initial;&quot;&gt;try api&lt;/span&gt;&lt;/div&gt;&lt;font style=&quot;font-size: 18px;&quot;&gt;&lt;div style=&quot;text-align: left;&quot;&gt;&lt;span style=&quot;background-color: initial;&quot;&gt;[commit api]&lt;/span&gt;&lt;/div&gt;&lt;div style=&quot;text-align: left;&quot;&gt;&lt;span style=&quot;background-color: initial;&quot;&gt;cancel api&lt;/span&gt;&lt;/div&gt;&lt;/font&gt;" style="text;html=1;align=center;verticalAlign=middle;resizable=0;points=[];autosize=1;strokeColor=none;fillColor=none;" vertex="1" parent="oiWDQCpB6odHgl-2GRSj-2">
          <mxGeometry x="20" y="40" width="120" height="80" as="geometry" />
        </mxCell>
        <mxCell id="oiWDQCpB6odHgl-2GRSj-17" value="@Transction" style="edgeStyle=orthogonalEdgeStyle;rounded=0;orthogonalLoop=1;jettySize=auto;html=1;exitX=0.5;exitY=1;exitDx=0;exitDy=0;entryX=0.5;entryY=0;entryDx=0;entryDy=0;entryPerimeter=0;strokeColor=#0B4D6A;fontSize=13;" parent="WIyWlLk6GJQsqaUBKTNV-1" source="oiWDQCpB6odHgl-2GRSj-3" target="oiWDQCpB6odHgl-2GRSj-14" edge="1">
          <mxGeometry relative="1" as="geometry" />
        </mxCell>
        <mxCell id="tsjQ4f3Fj1VHNN_PMI0R-31" style="edgeStyle=orthogonalEdgeStyle;rounded=0;orthogonalLoop=1;jettySize=auto;html=1;exitX=0.5;exitY=0;exitDx=0;exitDy=0;entryX=0.5;entryY=1;entryDx=0;entryDy=0;" edge="1" parent="WIyWlLk6GJQsqaUBKTNV-1" source="oiWDQCpB6odHgl-2GRSj-3" target="tsjQ4f3Fj1VHNN_PMI0R-30">
          <mxGeometry relative="1" as="geometry" />
        </mxCell>
        <mxCell id="oiWDQCpB6odHgl-2GRSj-3" value="资源管理者 RM3" style="swimlane;whiteSpace=wrap;html=1;startSize=40;rounded=1;labelBackgroundColor=none;fillColor=#09555B;strokeColor=#BAC8D3;fontColor=#EEEEEE;fontSize=16;" parent="WIyWlLk6GJQsqaUBKTNV-1" vertex="1">
          <mxGeometry x="450" y="240" width="160" height="120" as="geometry">
            <mxRectangle x="440" y="40" width="70" height="40" as="alternateBounds" />
          </mxGeometry>
        </mxCell>
        <mxCell id="tsjQ4f3Fj1VHNN_PMI0R-39" value="&lt;div style=&quot;text-align: left;&quot;&gt;&lt;span style=&quot;font-size: 18px; background-color: initial;&quot;&gt;try api&lt;/span&gt;&lt;/div&gt;&lt;font style=&quot;font-size: 18px;&quot;&gt;&lt;div style=&quot;text-align: left;&quot;&gt;&lt;span style=&quot;background-color: initial;&quot;&gt;[commit api]&lt;/span&gt;&lt;/div&gt;&lt;div style=&quot;text-align: left;&quot;&gt;&lt;span style=&quot;background-color: initial;&quot;&gt;cancel api&lt;/span&gt;&lt;/div&gt;&lt;/font&gt;" style="text;html=1;align=center;verticalAlign=middle;resizable=0;points=[];autosize=1;strokeColor=none;fillColor=none;" vertex="1" parent="oiWDQCpB6odHgl-2GRSj-3">
          <mxGeometry x="20" y="40" width="120" height="80" as="geometry" />
        </mxCell>
        <mxCell id="oiWDQCpB6odHgl-2GRSj-12" value="&lt;br&gt;DB" style="strokeWidth=2;html=1;shape=mxgraph.flowchart.database;whiteSpace=wrap;strokeColor=#BAC8D3;fontColor=#EEEEEE;fillColor=#09555B;fontSize=20;" parent="WIyWlLk6GJQsqaUBKTNV-1" vertex="1">
          <mxGeometry x="100" y="395" width="60" height="60" as="geometry" />
        </mxCell>
        <mxCell id="oiWDQCpB6odHgl-2GRSj-13" value="&lt;br&gt;DB" style="strokeWidth=2;html=1;shape=mxgraph.flowchart.database;whiteSpace=wrap;strokeColor=#BAC8D3;fontColor=#EEEEEE;fillColor=#09555B;fontSize=20;" parent="WIyWlLk6GJQsqaUBKTNV-1" vertex="1">
          <mxGeometry x="300" y="395" width="60" height="60" as="geometry" />
        </mxCell>
        <mxCell id="oiWDQCpB6odHgl-2GRSj-14" value="&lt;br&gt;DB" style="strokeWidth=2;html=1;shape=mxgraph.flowchart.database;whiteSpace=wrap;strokeColor=#BAC8D3;fontColor=#EEEEEE;fillColor=#09555B;fontSize=20;" parent="WIyWlLk6GJQsqaUBKTNV-1" vertex="1">
          <mxGeometry x="500" y="395" width="60" height="60" as="geometry" />
        </mxCell>
        <mxCell id="KBuHe3UxBQ08w5skN4uY-17" style="rounded=0;orthogonalLoop=1;jettySize=auto;html=1;exitX=1;exitY=0.5;exitDx=0;exitDy=0;entryX=0;entryY=0;entryDx=0;entryDy=0;strokeColor=default;startArrow=classic;startFill=1;endSize=8;startSize=8;" parent="WIyWlLk6GJQsqaUBKTNV-1" source="KBuHe3UxBQ08w5skN4uY-1" target="KBuHe3UxBQ08w5skN4uY-16" edge="1">
          <mxGeometry relative="1" as="geometry" />
        </mxCell>
        <mxCell id="KBuHe3UxBQ08w5skN4uY-27" value="Netty" style="edgeLabel;html=1;align=center;verticalAlign=middle;resizable=0;points=[];fontSize=16;" parent="KBuHe3UxBQ08w5skN4uY-17" vertex="1" connectable="0">
          <mxGeometry x="-0.1962" y="3" relative="1" as="geometry">
            <mxPoint x="9" y="21" as="offset" />
          </mxGeometry>
        </mxCell>
        <mxCell id="tsjQ4f3Fj1VHNN_PMI0R-59" style="edgeStyle=orthogonalEdgeStyle;rounded=0;orthogonalLoop=1;jettySize=auto;html=1;exitX=0;exitY=0.25;exitDx=0;exitDy=0;entryX=1;entryY=0.5;entryDx=0;entryDy=0;entryPerimeter=0;" edge="1" parent="WIyWlLk6GJQsqaUBKTNV-1" source="KBuHe3UxBQ08w5skN4uY-1" target="KBuHe3UxBQ08w5skN4uY-28">
          <mxGeometry relative="1" as="geometry" />
        </mxCell>
        <mxCell id="KBuHe3UxBQ08w5skN4uY-1" value="TC" style="rounded=0;whiteSpace=wrap;html=1;horizontal=1;labelPosition=left;verticalLabelPosition=middle;align=right;verticalAlign=middle;fontSize=24;shadow=1;" parent="WIyWlLk6GJQsqaUBKTNV-1" vertex="1">
          <mxGeometry x="900" y="140" width="220" height="140" as="geometry" />
        </mxCell>
        <mxCell id="KBuHe3UxBQ08w5skN4uY-18" style="edgeStyle=orthogonalEdgeStyle;rounded=0;orthogonalLoop=1;jettySize=auto;html=1;exitX=1;exitY=0.5;exitDx=0;exitDy=0;entryX=0;entryY=0.5;entryDx=0;entryDy=0;startArrow=classic;startFill=1;endSize=8;startSize=8;" parent="WIyWlLk6GJQsqaUBKTNV-1" source="KBuHe3UxBQ08w5skN4uY-2" target="KBuHe3UxBQ08w5skN4uY-16" edge="1">
          <mxGeometry relative="1" as="geometry">
            <mxPoint x="1230" y="400" as="targetPoint" />
          </mxGeometry>
        </mxCell>
        <mxCell id="KBuHe3UxBQ08w5skN4uY-25" value="&lt;font style=&quot;font-size: 16px;&quot;&gt;Netty&lt;/font&gt;" style="edgeLabel;html=1;align=center;verticalAlign=middle;resizable=0;points=[];" parent="KBuHe3UxBQ08w5skN4uY-18" vertex="1" connectable="0">
          <mxGeometry x="0.22" y="3" relative="1" as="geometry">
            <mxPoint x="-13" y="3" as="offset" />
          </mxGeometry>
        </mxCell>
        <mxCell id="KBuHe3UxBQ08w5skN4uY-2" value="TM" style="rounded=0;whiteSpace=wrap;html=1;horizontal=1;labelPosition=left;verticalLabelPosition=middle;align=right;verticalAlign=middle;fontSize=24;shadow=1;" parent="WIyWlLk6GJQsqaUBKTNV-1" vertex="1">
          <mxGeometry x="900" y="330" width="220" height="140" as="geometry" />
        </mxCell>
        <mxCell id="KBuHe3UxBQ08w5skN4uY-3" value="POD_1" style="rounded=1;whiteSpace=wrap;html=1;" parent="WIyWlLk6GJQsqaUBKTNV-1" vertex="1">
          <mxGeometry x="915" y="160" width="80" height="40" as="geometry" />
        </mxCell>
        <mxCell id="KBuHe3UxBQ08w5skN4uY-4" value="POD_2" style="rounded=1;whiteSpace=wrap;html=1;" parent="WIyWlLk6GJQsqaUBKTNV-1" vertex="1">
          <mxGeometry x="1025" y="160" width="80" height="40" as="geometry" />
        </mxCell>
        <mxCell id="KBuHe3UxBQ08w5skN4uY-8" value="POD_1" style="rounded=1;whiteSpace=wrap;html=1;" parent="WIyWlLk6GJQsqaUBKTNV-1" vertex="1">
          <mxGeometry x="915" y="340" width="80" height="40" as="geometry" />
        </mxCell>
        <mxCell id="KBuHe3UxBQ08w5skN4uY-9" value="POD_2" style="rounded=1;whiteSpace=wrap;html=1;" parent="WIyWlLk6GJQsqaUBKTNV-1" vertex="1">
          <mxGeometry x="1025" y="340" width="80" height="40" as="geometry" />
        </mxCell>
        <mxCell id="KBuHe3UxBQ08w5skN4uY-19" style="rounded=0;orthogonalLoop=1;jettySize=auto;html=1;exitX=1;exitY=0.5;exitDx=0;exitDy=0;entryX=0;entryY=1;entryDx=0;entryDy=0;startArrow=classic;startFill=1;endSize=8;startSize=8;" parent="WIyWlLk6GJQsqaUBKTNV-1" source="KBuHe3UxBQ08w5skN4uY-12" target="KBuHe3UxBQ08w5skN4uY-16" edge="1">
          <mxGeometry relative="1" as="geometry" />
        </mxCell>
        <mxCell id="KBuHe3UxBQ08w5skN4uY-26" value="Netty" style="edgeLabel;html=1;align=center;verticalAlign=middle;resizable=0;points=[];fontSize=16;" parent="KBuHe3UxBQ08w5skN4uY-19" vertex="1" connectable="0">
          <mxGeometry x="0.2391" y="-1" relative="1" as="geometry">
            <mxPoint x="-15" y="24" as="offset" />
          </mxGeometry>
        </mxCell>
        <mxCell id="tsjQ4f3Fj1VHNN_PMI0R-41" style="edgeStyle=orthogonalEdgeStyle;rounded=0;orthogonalLoop=1;jettySize=auto;html=1;exitX=0;exitY=0.25;exitDx=0;exitDy=0;entryX=1;entryY=0.5;entryDx=0;entryDy=0;entryPerimeter=0;" edge="1" parent="WIyWlLk6GJQsqaUBKTNV-1" source="KBuHe3UxBQ08w5skN4uY-12" target="tsjQ4f3Fj1VHNN_PMI0R-40">
          <mxGeometry relative="1" as="geometry" />
        </mxCell>
        <mxCell id="KBuHe3UxBQ08w5skN4uY-12" value="RM" style="rounded=0;whiteSpace=wrap;html=1;horizontal=1;labelPosition=left;verticalLabelPosition=middle;align=right;verticalAlign=middle;fontSize=24;shadow=1;" parent="WIyWlLk6GJQsqaUBKTNV-1" vertex="1">
          <mxGeometry x="900" y="520" width="220" height="140" as="geometry" />
        </mxCell>
        <mxCell id="KBuHe3UxBQ08w5skN4uY-13" value="POD_1" style="rounded=1;whiteSpace=wrap;html=1;" parent="WIyWlLk6GJQsqaUBKTNV-1" vertex="1">
          <mxGeometry x="915" y="540" width="80" height="40" as="geometry" />
        </mxCell>
        <mxCell id="KBuHe3UxBQ08w5skN4uY-14" value="POD_2" style="rounded=1;whiteSpace=wrap;html=1;" parent="WIyWlLk6GJQsqaUBKTNV-1" vertex="1">
          <mxGeometry x="1025" y="540" width="80" height="40" as="geometry" />
        </mxCell>
        <mxCell id="KBuHe3UxBQ08w5skN4uY-16" value="Nacos" style="rounded=1;whiteSpace=wrap;html=1;fontSize=24;fillColor=#dae8fc;strokeColor=#6c8ebf;shadow=1;" parent="WIyWlLk6GJQsqaUBKTNV-1" vertex="1">
          <mxGeometry x="1240" y="360" width="160" height="80" as="geometry" />
        </mxCell>
        <mxCell id="KBuHe3UxBQ08w5skN4uY-20" value="" style="endArrow=none;dashed=1;html=1;dashPattern=1 3;strokeWidth=2;rounded=0;" parent="WIyWlLk6GJQsqaUBKTNV-1" edge="1">
          <mxGeometry width="50" height="50" relative="1" as="geometry">
            <mxPoint x="925" y="250" as="sourcePoint" />
            <mxPoint x="955" y="250" as="targetPoint" />
          </mxGeometry>
        </mxCell>
        <mxCell id="KBuHe3UxBQ08w5skN4uY-22" value="" style="endArrow=none;dashed=1;html=1;dashPattern=1 3;strokeWidth=2;rounded=0;" parent="WIyWlLk6GJQsqaUBKTNV-1" edge="1">
          <mxGeometry width="50" height="50" relative="1" as="geometry">
            <mxPoint x="922" y="425" as="sourcePoint" />
            <mxPoint x="952" y="425" as="targetPoint" />
          </mxGeometry>
        </mxCell>
        <mxCell id="KBuHe3UxBQ08w5skN4uY-23" value="" style="endArrow=none;dashed=1;html=1;dashPattern=1 3;strokeWidth=2;rounded=0;" parent="WIyWlLk6GJQsqaUBKTNV-1" edge="1">
          <mxGeometry width="50" height="50" relative="1" as="geometry">
            <mxPoint x="923" y="629" as="sourcePoint" />
            <mxPoint x="953" y="629" as="targetPoint" />
          </mxGeometry>
        </mxCell>
        <mxCell id="KBuHe3UxBQ08w5skN4uY-28" value="&lt;br&gt;DB" style="strokeWidth=2;html=1;shape=mxgraph.flowchart.database;whiteSpace=wrap;strokeColor=#006EAF;fontColor=#ffffff;fillColor=#1ba1e2;fontSize=20;" parent="WIyWlLk6GJQsqaUBKTNV-1" vertex="1">
          <mxGeometry x="760" y="145" width="60" height="60" as="geometry" />
        </mxCell>
        <mxCell id="tsjQ4f3Fj1VHNN_PMI0R-2" style="edgeStyle=orthogonalEdgeStyle;rounded=0;orthogonalLoop=1;jettySize=auto;html=1;exitX=1;exitY=0.75;exitDx=0;exitDy=0;entryX=0;entryY=0.75;entryDx=0;entryDy=0;" edge="1" parent="WIyWlLk6GJQsqaUBKTNV-1" source="tsjQ4f3Fj1VHNN_PMI0R-0" target="tsjQ4f3Fj1VHNN_PMI0R-1">
          <mxGeometry relative="1" as="geometry" />
        </mxCell>
        <mxCell id="tsjQ4f3Fj1VHNN_PMI0R-4" value="&lt;font style=&quot;font-size: 18px;&quot;&gt;① try&lt;/font&gt;" style="edgeLabel;html=1;align=center;verticalAlign=middle;resizable=0;points=[];" vertex="1" connectable="0" parent="tsjQ4f3Fj1VHNN_PMI0R-2">
          <mxGeometry x="0.1567" relative="1" as="geometry">
            <mxPoint x="-9" as="offset" />
          </mxGeometry>
        </mxCell>
        <mxCell id="tsjQ4f3Fj1VHNN_PMI0R-8" style="rounded=0;orthogonalLoop=1;jettySize=auto;html=1;exitX=0.5;exitY=0;exitDx=0;exitDy=0;entryX=0.5;entryY=1;entryDx=0;entryDy=0;" edge="1" parent="WIyWlLk6GJQsqaUBKTNV-1" source="tsjQ4f3Fj1VHNN_PMI0R-0" target="tsjQ4f3Fj1VHNN_PMI0R-5">
          <mxGeometry relative="1" as="geometry" />
        </mxCell>
        <mxCell id="tsjQ4f3Fj1VHNN_PMI0R-9" value="&lt;font style=&quot;font-size: 18px;&quot;&gt;④ timeout&lt;/font&gt;" style="edgeLabel;html=1;align=center;verticalAlign=middle;resizable=0;points=[];" vertex="1" connectable="0" parent="tsjQ4f3Fj1VHNN_PMI0R-8">
          <mxGeometry x="0.2768" y="1" relative="1" as="geometry">
            <mxPoint x="-15" y="12" as="offset" />
          </mxGeometry>
        </mxCell>
        <mxCell id="tsjQ4f3Fj1VHNN_PMI0R-0" value="&lt;font style=&quot;font-size: 18px;&quot;&gt;&lt;b&gt;TM&lt;/b&gt;&lt;/font&gt;" style="rounded=1;whiteSpace=wrap;html=1;" vertex="1" parent="WIyWlLk6GJQsqaUBKTNV-1">
          <mxGeometry x="90" y="670" width="110" height="55" as="geometry" />
        </mxCell>
        <mxCell id="tsjQ4f3Fj1VHNN_PMI0R-3" value="&lt;font color=&quot;#ff0000&quot; style=&quot;font-size: 18px;&quot;&gt;③ return&lt;/font&gt;" style="edgeStyle=orthogonalEdgeStyle;rounded=0;orthogonalLoop=1;jettySize=auto;html=1;exitX=0;exitY=0.25;exitDx=0;exitDy=0;" edge="1" parent="WIyWlLk6GJQsqaUBKTNV-1" source="tsjQ4f3Fj1VHNN_PMI0R-1">
          <mxGeometry x="-0.118" relative="1" as="geometry">
            <mxPoint x="210" y="684" as="targetPoint" />
            <mxPoint as="offset" />
          </mxGeometry>
        </mxCell>
        <mxCell id="tsjQ4f3Fj1VHNN_PMI0R-6" style="rounded=0;orthogonalLoop=1;jettySize=auto;html=1;exitX=0.5;exitY=0;exitDx=0;exitDy=0;entryX=0.5;entryY=1;entryDx=0;entryDy=0;" edge="1" parent="WIyWlLk6GJQsqaUBKTNV-1" source="tsjQ4f3Fj1VHNN_PMI0R-1" target="tsjQ4f3Fj1VHNN_PMI0R-5">
          <mxGeometry relative="1" as="geometry">
            <Array as="points">
              <mxPoint x="320" y="630" />
            </Array>
          </mxGeometry>
        </mxCell>
        <mxCell id="tsjQ4f3Fj1VHNN_PMI0R-7" value="&lt;font style=&quot;font-size: 18px;&quot;&gt;② report&lt;/font&gt;" style="edgeLabel;html=1;align=center;verticalAlign=middle;resizable=0;points=[];" vertex="1" connectable="0" parent="tsjQ4f3Fj1VHNN_PMI0R-6">
          <mxGeometry x="0.0813" relative="1" as="geometry">
            <mxPoint x="-19" y="10" as="offset" />
          </mxGeometry>
        </mxCell>
        <mxCell id="tsjQ4f3Fj1VHNN_PMI0R-1" value="&lt;font style=&quot;font-size: 18px;&quot;&gt;&lt;b&gt;RM&lt;/b&gt;&lt;/font&gt;" style="rounded=1;whiteSpace=wrap;html=1;" vertex="1" parent="WIyWlLk6GJQsqaUBKTNV-1">
          <mxGeometry x="320" y="670" width="110" height="55" as="geometry" />
        </mxCell>
        <mxCell id="tsjQ4f3Fj1VHNN_PMI0R-10" style="rounded=0;orthogonalLoop=1;jettySize=auto;html=1;exitX=0.75;exitY=1;exitDx=0;exitDy=0;entryX=0.75;entryY=0;entryDx=0;entryDy=0;" edge="1" parent="WIyWlLk6GJQsqaUBKTNV-1" source="tsjQ4f3Fj1VHNN_PMI0R-5" target="tsjQ4f3Fj1VHNN_PMI0R-1">
          <mxGeometry relative="1" as="geometry" />
        </mxCell>
        <mxCell id="tsjQ4f3Fj1VHNN_PMI0R-5" value="&lt;font style=&quot;font-size: 18px;&quot;&gt;&lt;b&gt;TC&lt;/b&gt;&lt;/font&gt;" style="rounded=1;whiteSpace=wrap;html=1;" vertex="1" parent="WIyWlLk6GJQsqaUBKTNV-1">
          <mxGeometry x="200" y="520" width="110" height="55" as="geometry" />
        </mxCell>
        <mxCell id="tsjQ4f3Fj1VHNN_PMI0R-11" value="&lt;font style=&quot;font-size: 18px;&quot;&gt;⑤ rollback&lt;/font&gt;" style="text;html=1;align=center;verticalAlign=middle;resizable=0;points=[];autosize=1;strokeColor=none;fillColor=none;" vertex="1" parent="WIyWlLk6GJQsqaUBKTNV-1">
          <mxGeometry x="310" y="585" width="110" height="40" as="geometry" />
        </mxCell>
        <mxCell id="tsjQ4f3Fj1VHNN_PMI0R-12" style="edgeStyle=orthogonalEdgeStyle;rounded=0;orthogonalLoop=1;jettySize=auto;html=1;exitX=1;exitY=0.5;exitDx=0;exitDy=0;entryX=0;entryY=0.5;entryDx=0;entryDy=0;" edge="1" parent="WIyWlLk6GJQsqaUBKTNV-1" source="tsjQ4f3Fj1VHNN_PMI0R-16" target="tsjQ4f3Fj1VHNN_PMI0R-20">
          <mxGeometry relative="1" as="geometry">
            <mxPoint x="290" y="938" as="targetPoint" />
          </mxGeometry>
        </mxCell>
        <mxCell id="tsjQ4f3Fj1VHNN_PMI0R-13" value="&lt;font color=&quot;#ff0000&quot; style=&quot;font-size: 18px;&quot;&gt;① try&lt;/font&gt;" style="edgeLabel;html=1;align=center;verticalAlign=middle;resizable=0;points=[];" vertex="1" connectable="0" parent="tsjQ4f3Fj1VHNN_PMI0R-12">
          <mxGeometry x="0.1567" relative="1" as="geometry">
            <mxPoint x="-9" as="offset" />
          </mxGeometry>
        </mxCell>
        <mxCell id="tsjQ4f3Fj1VHNN_PMI0R-14" style="rounded=0;orthogonalLoop=1;jettySize=auto;html=1;exitX=0.5;exitY=0;exitDx=0;exitDy=0;entryX=0.5;entryY=1;entryDx=0;entryDy=0;" edge="1" parent="WIyWlLk6GJQsqaUBKTNV-1" source="tsjQ4f3Fj1VHNN_PMI0R-16" target="tsjQ4f3Fj1VHNN_PMI0R-22">
          <mxGeometry relative="1" as="geometry" />
        </mxCell>
        <mxCell id="tsjQ4f3Fj1VHNN_PMI0R-15" value="&lt;font style=&quot;font-size: 18px;&quot;&gt;② timeout&lt;/font&gt;" style="edgeLabel;html=1;align=center;verticalAlign=middle;resizable=0;points=[];" vertex="1" connectable="0" parent="tsjQ4f3Fj1VHNN_PMI0R-14">
          <mxGeometry x="0.2768" y="1" relative="1" as="geometry">
            <mxPoint x="-15" y="12" as="offset" />
          </mxGeometry>
        </mxCell>
        <mxCell id="tsjQ4f3Fj1VHNN_PMI0R-16" value="&lt;font style=&quot;font-size: 18px;&quot;&gt;&lt;b&gt;TM&lt;/b&gt;&lt;/font&gt;" style="rounded=1;whiteSpace=wrap;html=1;" vertex="1" parent="WIyWlLk6GJQsqaUBKTNV-1">
          <mxGeometry x="90" y="910" width="110" height="55" as="geometry" />
        </mxCell>
        <mxCell id="tsjQ4f3Fj1VHNN_PMI0R-20" value="&lt;font style=&quot;font-size: 18px;&quot;&gt;&lt;b&gt;RM&lt;/b&gt;&lt;/font&gt;" style="rounded=1;whiteSpace=wrap;html=1;" vertex="1" parent="WIyWlLk6GJQsqaUBKTNV-1">
          <mxGeometry x="320" y="910" width="110" height="55" as="geometry" />
        </mxCell>
        <mxCell id="tsjQ4f3Fj1VHNN_PMI0R-21" style="rounded=0;orthogonalLoop=1;jettySize=auto;html=1;exitX=0.75;exitY=1;exitDx=0;exitDy=0;entryX=0.75;entryY=0;entryDx=0;entryDy=0;" edge="1" parent="WIyWlLk6GJQsqaUBKTNV-1" source="tsjQ4f3Fj1VHNN_PMI0R-22" target="tsjQ4f3Fj1VHNN_PMI0R-20">
          <mxGeometry relative="1" as="geometry" />
        </mxCell>
        <mxCell id="tsjQ4f3Fj1VHNN_PMI0R-22" value="&lt;font style=&quot;font-size: 18px;&quot;&gt;&lt;b&gt;TC&lt;/b&gt;&lt;/font&gt;" style="rounded=1;whiteSpace=wrap;html=1;" vertex="1" parent="WIyWlLk6GJQsqaUBKTNV-1">
          <mxGeometry x="200" y="760" width="110" height="55" as="geometry" />
        </mxCell>
        <mxCell id="tsjQ4f3Fj1VHNN_PMI0R-23" value="&lt;font style=&quot;font-size: 18px;&quot;&gt;③ cancel&lt;/font&gt;" style="text;html=1;align=center;verticalAlign=middle;resizable=0;points=[];autosize=1;strokeColor=none;fillColor=none;" vertex="1" parent="WIyWlLk6GJQsqaUBKTNV-1">
          <mxGeometry x="295" y="840" width="100" height="40" as="geometry" />
        </mxCell>
        <mxCell id="tsjQ4f3Fj1VHNN_PMI0R-30" value="事务协调者 TC" style="swimlane;whiteSpace=wrap;html=1;startSize=40;rounded=1;labelBackgroundColor=none;fillColor=#09555B;strokeColor=#BAC8D3;fontColor=#EEEEEE;fontSize=16;" vertex="1" parent="WIyWlLk6GJQsqaUBKTNV-1">
          <mxGeometry x="450" y="25" width="160" height="120" as="geometry">
            <mxRectangle x="440" y="40" width="70" height="40" as="alternateBounds" />
          </mxGeometry>
        </mxCell>
        <mxCell id="tsjQ4f3Fj1VHNN_PMI0R-40" value="&lt;br&gt;DB" style="strokeWidth=2;html=1;shape=mxgraph.flowchart.database;whiteSpace=wrap;strokeColor=#006EAF;fontColor=#ffffff;fillColor=#1ba1e2;fontSize=20;" vertex="1" parent="WIyWlLk6GJQsqaUBKTNV-1">
          <mxGeometry x="750" y="525" width="60" height="60" as="geometry" />
        </mxCell>
        <mxCell id="tsjQ4f3Fj1VHNN_PMI0R-42" style="edgeStyle=orthogonalEdgeStyle;rounded=0;orthogonalLoop=1;jettySize=auto;html=1;exitX=1;exitY=0.75;exitDx=0;exitDy=0;entryX=0;entryY=0.75;entryDx=0;entryDy=0;" edge="1" parent="WIyWlLk6GJQsqaUBKTNV-1" source="tsjQ4f3Fj1VHNN_PMI0R-46" target="tsjQ4f3Fj1VHNN_PMI0R-47">
          <mxGeometry relative="1" as="geometry">
            <mxPoint x="813" y="940.38" as="targetPoint" />
          </mxGeometry>
        </mxCell>
        <mxCell id="tsjQ4f3Fj1VHNN_PMI0R-43" value="&lt;font style=&quot;font-size: 18px;&quot;&gt;① try&lt;/font&gt;" style="edgeLabel;html=1;align=center;verticalAlign=middle;resizable=0;points=[];" vertex="1" connectable="0" parent="tsjQ4f3Fj1VHNN_PMI0R-42">
          <mxGeometry x="0.1567" relative="1" as="geometry">
            <mxPoint x="-7" y="14" as="offset" />
          </mxGeometry>
        </mxCell>
        <mxCell id="tsjQ4f3Fj1VHNN_PMI0R-46" value="&lt;font style=&quot;font-size: 18px;&quot;&gt;&lt;b&gt;TM&lt;/b&gt;&lt;/font&gt;" style="rounded=1;whiteSpace=wrap;html=1;" vertex="1" parent="WIyWlLk6GJQsqaUBKTNV-1">
          <mxGeometry x="613" y="912.38" width="110" height="55" as="geometry" />
        </mxCell>
        <mxCell id="tsjQ4f3Fj1VHNN_PMI0R-53" style="edgeStyle=orthogonalEdgeStyle;rounded=0;orthogonalLoop=1;jettySize=auto;html=1;exitX=0;exitY=0.25;exitDx=0;exitDy=0;entryX=1;entryY=0.25;entryDx=0;entryDy=0;" edge="1" parent="WIyWlLk6GJQsqaUBKTNV-1" source="tsjQ4f3Fj1VHNN_PMI0R-47" target="tsjQ4f3Fj1VHNN_PMI0R-46">
          <mxGeometry relative="1" as="geometry" />
        </mxCell>
        <mxCell id="tsjQ4f3Fj1VHNN_PMI0R-54" value="&lt;font style=&quot;font-size: 18px;&quot;&gt;③ 放弃&lt;/font&gt;" style="edgeLabel;html=1;align=center;verticalAlign=middle;resizable=0;points=[];" vertex="1" connectable="0" parent="tsjQ4f3Fj1VHNN_PMI0R-53">
          <mxGeometry x="0.26" y="-2" relative="1" as="geometry">
            <mxPoint x="18" y="-12" as="offset" />
          </mxGeometry>
        </mxCell>
        <mxCell id="tsjQ4f3Fj1VHNN_PMI0R-56" style="rounded=0;orthogonalLoop=1;jettySize=auto;html=1;exitX=0.5;exitY=0;exitDx=0;exitDy=0;" edge="1" parent="WIyWlLk6GJQsqaUBKTNV-1" source="tsjQ4f3Fj1VHNN_PMI0R-47">
          <mxGeometry relative="1" as="geometry">
            <mxPoint x="823" y="832.38" as="targetPoint" />
          </mxGeometry>
        </mxCell>
        <mxCell id="tsjQ4f3Fj1VHNN_PMI0R-47" value="&lt;font style=&quot;font-size: 18px;&quot;&gt;&lt;b&gt;RM&lt;/b&gt;&lt;/font&gt;" style="rounded=1;whiteSpace=wrap;html=1;" vertex="1" parent="WIyWlLk6GJQsqaUBKTNV-1">
          <mxGeometry x="843" y="912.38" width="110" height="55" as="geometry" />
        </mxCell>
        <mxCell id="tsjQ4f3Fj1VHNN_PMI0R-49" value="&lt;font style=&quot;font-size: 18px;&quot;&gt;&lt;b&gt;TC&lt;/b&gt;&lt;/font&gt;" style="rounded=1;whiteSpace=wrap;html=1;" vertex="1" parent="WIyWlLk6GJQsqaUBKTNV-1">
          <mxGeometry x="730" y="762.38" width="110" height="55" as="geometry" />
        </mxCell>
        <mxCell id="tsjQ4f3Fj1VHNN_PMI0R-51" value="" style="ellipse;whiteSpace=wrap;html=1;fillColor=#FF0000;" vertex="1" parent="WIyWlLk6GJQsqaUBKTNV-1">
          <mxGeometry x="860.5" y="930.38" width="12.5" height="17.5" as="geometry" />
        </mxCell>
        <mxCell id="tsjQ4f3Fj1VHNN_PMI0R-55" value="" style="shape=cross;whiteSpace=wrap;html=1;rotation=45;fillColor=#FF0000;" vertex="1" parent="WIyWlLk6GJQsqaUBKTNV-1">
          <mxGeometry x="730" y="774.8799999999999" width="30" height="30" as="geometry" />
        </mxCell>
        <mxCell id="tsjQ4f3Fj1VHNN_PMI0R-57" value="&lt;font style=&quot;font-size: 18px;&quot;&gt;② Report&lt;br&gt;Status&lt;/font&gt;" style="text;html=1;align=center;verticalAlign=middle;resizable=0;points=[];autosize=1;strokeColor=none;fillColor=none;" vertex="1" parent="WIyWlLk6GJQsqaUBKTNV-1">
          <mxGeometry x="853" y="832.38" width="100" height="60" as="geometry" />
        </mxCell>
        <mxCell id="tsjQ4f3Fj1VHNN_PMI0R-44" style="rounded=0;orthogonalLoop=1;jettySize=auto;html=1;exitX=0.5;exitY=0;exitDx=0;exitDy=0;" edge="1" parent="WIyWlLk6GJQsqaUBKTNV-1" source="tsjQ4f3Fj1VHNN_PMI0R-46">
          <mxGeometry relative="1" as="geometry">
            <mxPoint x="743" y="832.38" as="targetPoint" />
          </mxGeometry>
        </mxCell>
        <mxCell id="tsjQ4f3Fj1VHNN_PMI0R-45" value="&lt;font style=&quot;font-size: 18px;&quot;&gt;&lt;br&gt;&lt;/font&gt;" style="edgeLabel;html=1;align=center;verticalAlign=middle;resizable=0;points=[];" vertex="1" connectable="0" parent="tsjQ4f3Fj1VHNN_PMI0R-44">
          <mxGeometry x="0.2768" y="1" relative="1" as="geometry">
            <mxPoint x="-47" y="2" as="offset" />
          </mxGeometry>
        </mxCell>
        <mxCell id="tsjQ4f3Fj1VHNN_PMI0R-58" value="&lt;font style=&quot;font-size: 18px;&quot;&gt;④ Rollback&lt;br style=&quot;border-color: var(--border-color); background-color: rgb(255, 255, 255);&quot;&gt;&lt;span style=&quot;background-color: rgb(255, 255, 255);&quot;&gt;&lt;font color=&quot;#ff0000&quot;&gt;retry fail&lt;/font&gt;&lt;/span&gt;&lt;/font&gt;" style="text;html=1;align=center;verticalAlign=middle;resizable=0;points=[];autosize=1;strokeColor=none;fillColor=none;" vertex="1" parent="WIyWlLk6GJQsqaUBKTNV-1">
          <mxGeometry x="610" y="832.38" width="120" height="60" as="geometry" />
        </mxCell>
        <mxCell id="tsjQ4f3Fj1VHNN_PMI0R-60" style="edgeStyle=orthogonalEdgeStyle;rounded=0;orthogonalLoop=1;jettySize=auto;html=1;exitX=1;exitY=0.75;exitDx=0;exitDy=0;entryX=0;entryY=0.75;entryDx=0;entryDy=0;" edge="1" parent="WIyWlLk6GJQsqaUBKTNV-1" source="tsjQ4f3Fj1VHNN_PMI0R-62">
          <mxGeometry relative="1" as="geometry">
            <mxPoint x="1266" y="943.63" as="targetPoint" />
          </mxGeometry>
        </mxCell>
        <mxCell id="tsjQ4f3Fj1VHNN_PMI0R-61" value="&lt;font style=&quot;font-size: 18px;&quot;&gt;① try&lt;/font&gt;" style="edgeLabel;html=1;align=center;verticalAlign=middle;resizable=0;points=[];" vertex="1" connectable="0" parent="tsjQ4f3Fj1VHNN_PMI0R-60">
          <mxGeometry x="0.1567" relative="1" as="geometry">
            <mxPoint x="-7" y="14" as="offset" />
          </mxGeometry>
        </mxCell>
        <mxCell id="tsjQ4f3Fj1VHNN_PMI0R-62" value="&lt;font style=&quot;font-size: 18px;&quot;&gt;&lt;b&gt;TM&lt;/b&gt;&lt;/font&gt;" style="rounded=1;whiteSpace=wrap;html=1;" vertex="1" parent="WIyWlLk6GJQsqaUBKTNV-1">
          <mxGeometry x="1036" y="902.38" width="110" height="55" as="geometry" />
        </mxCell>
        <mxCell id="tsjQ4f3Fj1VHNN_PMI0R-63" style="edgeStyle=orthogonalEdgeStyle;rounded=0;orthogonalLoop=1;jettySize=auto;html=1;exitX=0;exitY=0.25;exitDx=0;exitDy=0;entryX=1;entryY=0.25;entryDx=0;entryDy=0;" edge="1" parent="WIyWlLk6GJQsqaUBKTNV-1" target="tsjQ4f3Fj1VHNN_PMI0R-62">
          <mxGeometry relative="1" as="geometry">
            <mxPoint x="1266" y="916.13" as="sourcePoint" />
          </mxGeometry>
        </mxCell>
        <mxCell id="tsjQ4f3Fj1VHNN_PMI0R-64" value="&lt;font style=&quot;font-size: 18px;&quot;&gt;③ 放弃&lt;/font&gt;" style="edgeLabel;html=1;align=center;verticalAlign=middle;resizable=0;points=[];" vertex="1" connectable="0" parent="tsjQ4f3Fj1VHNN_PMI0R-63">
          <mxGeometry x="0.26" y="-2" relative="1" as="geometry">
            <mxPoint x="18" y="-12" as="offset" />
          </mxGeometry>
        </mxCell>
        <mxCell id="tsjQ4f3Fj1VHNN_PMI0R-65" style="rounded=0;orthogonalLoop=1;jettySize=auto;html=1;exitX=0.5;exitY=0;exitDx=0;exitDy=0;" edge="1" parent="WIyWlLk6GJQsqaUBKTNV-1">
          <mxGeometry relative="1" as="geometry">
            <mxPoint x="1246" y="822.38" as="targetPoint" />
            <mxPoint x="1321" y="902.38" as="sourcePoint" />
          </mxGeometry>
        </mxCell>
        <mxCell id="tsjQ4f3Fj1VHNN_PMI0R-66" value="&lt;font style=&quot;font-size: 18px;&quot;&gt;&lt;b&gt;RM&lt;/b&gt;&lt;/font&gt;" style="rounded=1;whiteSpace=wrap;html=1;" vertex="1" parent="WIyWlLk6GJQsqaUBKTNV-1">
          <mxGeometry x="1203" y="910" width="110" height="55" as="geometry" />
        </mxCell>
        <mxCell id="tsjQ4f3Fj1VHNN_PMI0R-76" style="rounded=0;orthogonalLoop=1;jettySize=auto;html=1;exitX=1;exitY=1;exitDx=0;exitDy=0;entryX=0.75;entryY=0;entryDx=0;entryDy=0;" edge="1" parent="WIyWlLk6GJQsqaUBKTNV-1" source="tsjQ4f3Fj1VHNN_PMI0R-67">
          <mxGeometry relative="1" as="geometry">
            <mxPoint x="1348.5" y="902.38" as="targetPoint" />
          </mxGeometry>
        </mxCell>
        <mxCell id="tsjQ4f3Fj1VHNN_PMI0R-67" value="&lt;font style=&quot;font-size: 18px;&quot;&gt;&lt;b&gt;TC&lt;/b&gt;&lt;/font&gt;" style="rounded=1;whiteSpace=wrap;html=1;" vertex="1" parent="WIyWlLk6GJQsqaUBKTNV-1">
          <mxGeometry x="1153" y="752.38" width="110" height="55" as="geometry" />
        </mxCell>
        <mxCell id="tsjQ4f3Fj1VHNN_PMI0R-68" value="" style="ellipse;whiteSpace=wrap;html=1;fillColor=#FF0000;" vertex="1" parent="WIyWlLk6GJQsqaUBKTNV-1">
          <mxGeometry x="1283.5" y="920.38" width="12.5" height="17.5" as="geometry" />
        </mxCell>
        <mxCell id="tsjQ4f3Fj1VHNN_PMI0R-70" value="&lt;font style=&quot;font-size: 18px;&quot;&gt;② Report&lt;br&gt;Status&lt;/font&gt;" style="text;html=1;align=center;verticalAlign=middle;resizable=0;points=[];autosize=1;strokeColor=none;fillColor=none;" vertex="1" parent="WIyWlLk6GJQsqaUBKTNV-1">
          <mxGeometry x="1196" y="832.38" width="100" height="60" as="geometry" />
        </mxCell>
        <mxCell id="tsjQ4f3Fj1VHNN_PMI0R-71" style="rounded=0;orthogonalLoop=1;jettySize=auto;html=1;exitX=0.5;exitY=0;exitDx=0;exitDy=0;entryX=0.25;entryY=1;entryDx=0;entryDy=0;" edge="1" parent="WIyWlLk6GJQsqaUBKTNV-1" source="tsjQ4f3Fj1VHNN_PMI0R-62" target="tsjQ4f3Fj1VHNN_PMI0R-67">
          <mxGeometry relative="1" as="geometry">
            <mxPoint x="1166" y="822.38" as="targetPoint" />
          </mxGeometry>
        </mxCell>
        <mxCell id="tsjQ4f3Fj1VHNN_PMI0R-72" value="&lt;font style=&quot;font-size: 18px;&quot;&gt;&lt;br&gt;&lt;/font&gt;" style="edgeLabel;html=1;align=center;verticalAlign=middle;resizable=0;points=[];" vertex="1" connectable="0" parent="tsjQ4f3Fj1VHNN_PMI0R-71">
          <mxGeometry x="0.2768" y="1" relative="1" as="geometry">
            <mxPoint x="-47" y="2" as="offset" />
          </mxGeometry>
        </mxCell>
        <mxCell id="tsjQ4f3Fj1VHNN_PMI0R-73" value="&lt;font style=&quot;font-size: 18px;&quot;&gt;④ Rollback&lt;br style=&quot;border-color: var(--border-color); background-color: rgb(255, 255, 255);&quot;&gt;&lt;span style=&quot;background-color: rgb(255, 255, 255);&quot;&gt;retry&lt;/span&gt;&lt;/font&gt;" style="text;html=1;align=center;verticalAlign=middle;resizable=0;points=[];autosize=1;strokeColor=none;fillColor=none;" vertex="1" parent="WIyWlLk6GJQsqaUBKTNV-1">
          <mxGeometry x="1033" y="822.38" width="120" height="60" as="geometry" />
        </mxCell>
        <mxCell id="tsjQ4f3Fj1VHNN_PMI0R-77" value="&lt;span style=&quot;font-size: 18px;&quot;&gt;⑤ Rollback&lt;/span&gt;" style="text;html=1;align=center;verticalAlign=middle;resizable=0;points=[];autosize=1;strokeColor=none;fillColor=none;" vertex="1" parent="WIyWlLk6GJQsqaUBKTNV-1">
          <mxGeometry x="1220.5" y="825" width="120" height="40" as="geometry" />
        </mxCell>
        <mxCell id="tsjQ4f3Fj1VHNN_PMI0R-80" style="edgeStyle=orthogonalEdgeStyle;rounded=0;orthogonalLoop=1;jettySize=auto;html=1;entryX=0;entryY=0.5;entryDx=0;entryDy=0;entryPerimeter=0;" edge="1" parent="WIyWlLk6GJQsqaUBKTNV-1" target="tsjQ4f3Fj1VHNN_PMI0R-78">
          <mxGeometry relative="1" as="geometry">
            <mxPoint x="1240" y="695" as="targetPoint" />
            <mxPoint x="1250" y="695" as="sourcePoint" />
            <Array as="points">
              <mxPoint x="1250" y="695" />
              <mxPoint x="1250" y="695" />
            </Array>
          </mxGeometry>
        </mxCell>
        <mxCell id="tsjQ4f3Fj1VHNN_PMI0R-78" value="&lt;br&gt;DB" style="strokeWidth=2;html=1;shape=mxgraph.flowchart.database;whiteSpace=wrap;strokeColor=#006EAF;fontColor=#ffffff;fillColor=#1ba1e2;fontSize=20;" vertex="1" parent="WIyWlLk6GJQsqaUBKTNV-1">
          <mxGeometry x="1310" y="665" width="60" height="60" as="geometry" />
        </mxCell>
      </root>
    </mxGraphModel>
  </diagram>
</mxfile>
